<svg xmlns="http://www.w3.org/2000/svg" height="78.934pt" width="106.61pt" viewBox="0 0 106.61329 78.934479">
 <g fill="#512888">
  <path d="m44.649 74.019v0.72656h0.47266c0.22656 0 0.3789-0.0312 0.46093-0.10156 0.082-0.0625 0.1211-0.15625 0.1211-0.26562 0-0.0703-0.0156-0.13672-0.0547-0.19141-0.0391-0.0586-0.0977-0.0977-0.16797-0.12891-0.0664-0.0273-0.19922-0.0391-0.38672-0.0391zm0 2.0977h-0.39062v-2.4297h0.83203c0.28125 0 0.48828 0.0234 0.61328 0.0703 0.1289 0.043 0.22656 0.1211 0.30469 0.23047 0.0742 0.11328 0.11328 0.23438 0.11328 0.35547 0 0.17969-0.0664 0.33203-0.19141 0.46484-0.125 0.12891-0.29297 0.20313-0.5 0.22266 0.082 0.0352 0.15234 0.0781 0.20313 0.125 0.0976 0.0977 0.21484 0.26172 0.35937 0.48438l0.28906 0.47656h-0.46875l-0.21875-0.38672c-0.16797-0.30078-0.30078-0.48828-0.40625-0.5625-0.0703-0.0586-0.17578-0.082-0.3125-0.082h-0.22656zm0.59766-3.1367c-0.32032 0-0.6211 0.0859-0.92188 0.24609-0.30078 0.16407-0.53125 0.39453-0.69922 0.69532-0.16797 0.30468-0.25 0.61718-0.25 0.94531 0 0.32422 0.082 0.64062 0.2461 0.9375 0.16406 0.29687 0.39453 0.53125 0.69531 0.69922 0.29297 0.16406 0.60156 0.25 0.92969 0.25 0.32031 0 0.6289-0.0859 0.92578-0.25 0.29687-0.16797 0.52734-0.40235 0.6914-0.69922 0.16407-0.29688 0.2461-0.61328 0.2461-0.9375 0-0.32813-0.082-0.64063-0.25-0.94531-0.17188-0.30079-0.39844-0.53125-0.69922-0.69532-0.30078-0.16015-0.60547-0.24609-0.91406-0.24609m0-0.37109c0.37109 0 0.73828 0.0977 1.0976 0.28906 0.35938 0.19922 0.63672 0.47265 0.83594 0.83594 0.19922 0.36328 0.30078 0.74218 0.30078 1.1328s-0.0976 0.76562-0.29687 1.1211c-0.19532 0.36719-0.47266 0.64063-0.82813 0.84375-0.35156 0.19531-0.72656 0.29688-1.1094 0.29688-0.39453 0-0.76172-0.10157-1.1172-0.29688-0.35547-0.20312-0.63281-0.47656-0.82813-0.84375-0.20312-0.35547-0.30078-0.73047-0.30078-1.1211s0.10547-0.76953 0.30469-1.1328c0.19922-0.36329 0.47656-0.63672 0.83594-0.83594 0.35547-0.19141 0.72656-0.28906 1.1055-0.28906m23.277-26.059s1.8438 9.6797 10.035 6.7227c0 0 3.5508 0.008 7.7266-5.9219 0 0 1.2383 1.8789-1.2422 7.0274 0 0 2.7812 1.875 2.6211 2.9688 0 0-9.2774 12.168-17.469 13.406 0 0-6.3203-11.246-16.523-3.6133 0 0-2.7852 1.8711-3.0938 4.3711 0 0-13.887-12.82 1.7266-23.418 0 0 5.4102-3.8984 16.219-1.543m1.5547-7.0234s-1.3945 2.8047-1.0859 4.5274c0 0-28.723-7.5312-34.617 14.949 0 0-3.1016 8.7383 5.6914 18.27 0 0-20.242 6.8476-29.176-13.457 0 0-5.543-16.402 16.863-24.652 0 0 18.547-6.6953 42.324 0.36328m-55.872-38.481s10.965 0.17187 26.258 0.0352c0 0 1.5312 11.242-10.82 9.9766 0 0-8.0352 0.46094-15.438-10.012m91.733 19.469s-0.78125 7.8125-8.0508 16.699l-3.5547-0.78125s-2.3242 5.6172-4.6406 5.457c0 0 3.2539-8.2695-4.6211-10.309-7.875-2.043-0.46094-0.3164-0.46094-0.3164s-6.9492-2.8203-13.445 6.543c0 0-42.711-17.535-69.84 16.469l0.0547-47.152 11.277-3.7344s8.4844 12.344 21.613 9.8594c0 0 9.2734-1.7031 8.3555-12.324 0 0 20.086-2.9453 37.223 5.8203l-7.8789 0.30469s22.086 3.1523 33.969 13.465"/></g></svg>
